<svg t="1629288995510" class="icon" viewBox="0 0 1024 1024" version="1.1" xmlns="http://www.w3.org/2000/svg" p-id="2228">
  <path d="M614.4 298.769067C614.4 338.261333 585.489067 375.466667 536.951467 375.466667c-40.96 0-60.245333-23.005867-59.050667-61.0304 0-31.5392 23.7568-75.502933 80.554667-75.502934C601.838933 239.104 614.4 266.717867 614.4 298.769067m-191.556267 384.341333l31.470934-147.0464c5.256533-23.4496 6.4512-32.9728 0-32.9728-8.260267 0-43.9296 16.349867-64.9216 32.529067L375.466667 509.883733C442.333867 446.6688 519.202133 409.6 552.209067 409.6c27.409067 0 31.914667 37.0688 18.432 93.4912l-36.420267 154.624c-6.485333 27.648-3.447467 36.590933 2.9696 36.590933 7.953067 0 35.2256-11.0592 61.474133-34.816l15.735467 23.483734C549.512533 756.6336 478.754133 785.066667 451.003733 785.066667c-27.409067 0.170667-47.2064-18.773333-28.16-101.956267M512 0C229.376 0 0 229.376 0 512c0 283.067733 229.376 512 512 512 283.067733 0 512-228.932267 512-512 0-282.624-228.932267-512-512-512" p-id="2229"></path>
</svg>