<svg t="1627901012269" class="icon" viewBox="0 0 1024 1024" version="1.1" xmlns="http://www.w3.org/2000/svg" p-id="6666" width="60" height="60">
  <path d="M483.5 8.8c-5.7 0-17.1 17.1-28.4 34.1l-22.8 28.4-28.4-17c-17.1-17.1-28.4-28.4-34.1-28.4-5.7 0-17.1 5.7-22.8 11.4l-11.4 34.1c-5.7 17.1-11.4 28.4-17.1 28.4l-34.1-11.4c-34.1-11.4-39.8-11.4-51.2 0-5.7 5.7-5.7 11.4-11.4 62.6 0 11.4 0 17.1-5.7 17.1h-34.1c-34.1 0-45.5 0-51.2 11.4-5.7 5.7-5.7 11.4 0 51.2 0 17.1 5.7 34.1 5.7 34.1s-17.1 5.7-34.1 5.7c-34.1-5.7-39.8 0-45.5 11.4-5.7 5.7 0 11.4 17.1 45.5 5.7 17.1 11.4 28.4 11.4 28.4s-17.1 5.7-34.1 17.1c-22.8 11.4-34.1 22.8-34.1 22.8V407c0 5.7 0 11.4 22.8 34.1 5.7 17.1 17.1 34.1 17.1 34.1l-23 22.8C5.7 520.8 0 520.8 0 532.2c0 11.4 5.7 17.1 34.1 39.8l28.4 22.8-17.1 28.4c-11.4 17.1-17.1 28.4-22.8 34.1-5.7 11.4 0 22.8 5.7 22.8 0 0 17.1 11.4 34.1 17.1 17.1 5.7 28.4 11.4 34.1 11.4l-11.4 34.1C73.9 776.8 73.9 788.2 79.6 793.9c5.7 5.7 11.4 5.7 45.5 11.4s34.1 5.7 34.1 11.4v34.1c0 34.1 0 39.8 11.4 45.5 5.7 5.7 11.4 5.7 51.2 0 17.1 0 34.1-5.7 34.1-5.7s5.7 17.1 5.7 34.1c5.7 39.8 11.4 39.8 22.8 45.5 5.7 0 11.4 0 51.2-17.1 17.1-5.7 28.4-11.4 28.4-11.4s5.7 17.1 17.1 34.1c17.1 34.1 17.1 39.8 34.1 39.8 5.7 0 11.4-5.7 34.1-22.8 17.1-11.4 28.4-22.8 28.4-22.8l22.8 22.8c22.8 28.4 22.8 28.4 34.1 28.4 11.4 0 17.1-5.7 39.8-34.1l22.8-28.4 28.4 17.1c28.5 22.8 39.8 22.8 45.5 22.8 11.4 0 17.1-5.7 28.4-39.8l11.4-34.1 34.1 11.4c34.1 11.4 45.5 11.4 51.2 5.7 5.7-5.7 5.7-11.4 11.4-62.6 0-17.1 0-17.1 45.5-11.4 34.1 0 39.8 0 45.5-11.4 5.7-5.7 5.7-11.4 0-51.2 0-17.1-5.7-34.1-5.7-34.1s17.1-5.7 34.1-5.7c17.1-5.7 34.1-5.7 39.8-11.4 0 0 5.7-5.7 5.7-11.4 5.7-11.4 5.7-11.4-17.1-51.2-5.7-17.1-11.4-28.4-11.4-28.4s17.1-5.7 34.1-17.1c17.1-5.7 34.1-17.1 34.1-17.1l5.7-11.4c0-5.7 0-11.4-22.8-34.1-17.1-11.4-28.4-28.4-28.4-28.4l17.1-17.1c34.1-28.5 39.8-34.1 39.8-39.8 0-11.4-5.7-17.1-34.1-39.8l-28.5-22.8 17.1-28.4 22.8-34.1v-11.4c-5.7-5.7-5.7-11.4-34.1-22.8l-34.1-11.4s0-17.1 11.4-34.1c11.4-34.1 11.4-45.5 5.7-51.2-11.4-11.4-17.1-11.4-56.9-17.1-22.8 0-28.4-5.7-28.4-5.7v-34.1c5.7-34.1 0-45.5-11.4-51.2-5.7-5.7-17.1-5.7-51.2 0-17.1 0-28.4 5.7-28.4 5.7s-5.7-17.1-5.7-34.1c-11.4-56.9-11.4-56.9-62.6-34.1-17.1 5.7-34.1 17.1-34.1 17.1s-5.7-17.1-17.1-34.1c-5.7-17.1-17.1-34.1-22.8-34.1l-11.4-5.7c-5.7 0-11.4 0-34.1 22.8L551.8 60s-11.4-11.4-22.8-28.4C506.3 3.1 494.9-2.6 483.5 8.8z" fill="#FF9900" p-id="6667"></path>
  <path d="M716.8 259.1c0 5.7 68.3 199.1 68.3 204.8 0 0-45.5 34.1-51.2 34.1 0 0-22.8-17.1-45.5-39.8-34.1-34.1-39.8-39.8-39.8-34.1 11.4 28.4 39.8 102.4 39.8 102.4 0 5.7-45.5 34.1-51.2 34.1-5.7 0-159.3-147.9-159.3-147.9 0-5.7 17.1-17.1 39.8-28.4l5.7-5.7 51.2 51.2c34.1 11.4 51.2 28.4 51.2 28.4-11.4-22.8-45.5-113.8-45.5-113.8 0-5.7 39.8-34.1 45.5-34.1 0 0 22.8 17.1 68.3 62.6l17.1 17.1s0-5.7-5.7-11.4c-5.7-17.1-39.8-91-39.8-91s45.4-34.2 51.1-28.5c0-5.7 0-5.7 0 0z" fill="#FFFFFF" p-id="6668"></path>
  <path d="M494.9 429.8c5.7 11.4 11.4 17.1 11.4 22.8l-34.1 22.8c-17.1 11.4-28.5 22.8-28.5 22.8s5.7 5.7 5.7 11.4c5.7 5.7 11.4 5.7 11.4 5.7s17.1-11.4 28.4-17.1c17.1-11.4 28.4-17.1 28.4-17.1 5.7 0 22.8 34.1 22.8 34.1s-11.4 11.4-28.4 22.8c-17.1 11.4-28.4 17.1-28.4 22.8l17.1 28.4 34.1-22.8 34.1-22.8c5.7 0 28.4 34.1 22.8 39.8 0 5.7-108.1 74-113.8 74-5.7 0-119.5-170.7-119.5-176.4 0-5.7 108.1-74 113.8-74 11.3 5.7 11.3 11.4 22.7 22.8zM403.9 589.1c34.1 51.2 56.9 91 56.9 91s-11.4 11.4-22.8 17.1l-22.8 17.1-34.1-17.1c-34.1-17.1-68.3-39.8-85.3-45.5-5.7-5.7-11.4-5.7-5.7 0 0 0 17.1 22.8 34.1 51.2 17.1 28.4 34.1 51.2 34.1 51.2 0 5.7-39.8 28.4-39.8 28.4s-28.5-39.8-62.6-85.3c-39.8-62.6-56.9-91-56.9-91s11.4-11.4 28.5-17.1l22.8-17.1 45.5 22.8c28.4 11.4 51.2 28.4 56.9 28.4 5.7 5.7 11.4 5.7 11.4 5.7s-11.4-22.8-28.4-45.5c-17.1-22.8-28.4-45.5-28.4-45.5 0-5.7 39.8-28.5 39.8-28.5-5.8-5.7 22.7 34.2 56.8 79.7z" fill="#FFFFFF" p-id="6669"></path>
</svg>