<?xml version="1.0" standalone="no"?>
<!DOCTYPE svg PUBLIC "-//W3C//DTD SVG 1.1//EN" "http://www.w3.org/Graphics/SVG/1.1/DTD/svg11.dtd">
<svg class="icon" viewBox="0 0 1024 1024" version="1.1" xmlns="http://www.w3.org/2000/svg">
  <path d="M855.286 100.229c0-11.071-11.081-22.142-22.148-22.142H622.736c-11.077 0-17.96 8.646-22.148 16.61l-66.444 121.811s138.425 5.538 221.479 88.586l99.663-204.865zM489.85 216.503L423.411 89.16c-5.378-11.534-11.076-16.615-22.153-16.615H196.395c-16.61 0-27.681 11.077-27.681 22.149 0 5.537 99.663 204.863 99.663 204.863 83.053-71.978 221.473-83.054 221.473-83.054" fill="#FED843" />
  <path d="M511.997 275.958c-188.259 0-337.746 149.496-337.746 337.747-0.005 188.254 149.487 337.75 337.746 337.75s337.751-149.496 337.751-337.75c0-188.25-149.492-337.747-337.751-337.747m171.644 304.527l-66.444 66.439 16.62 94.129c5.533 33.225-11.081 44.301-38.763 27.682l-83.058-44.291-83.053 44.291c-27.686 16.619-44.291 0-38.757-27.682l16.605-94.129-66.429-66.439c-22.158-22.147-16.625-44.301 16.6-49.833l88.591-11.072 38.757-83.048c11.081-27.691 33.229-27.691 49.834 0l38.757 83.048 94.125 11.072c33.23 11.075 44.301 27.685 16.615 49.833" fill="#FFB64C" />
</svg>